# Rhino

mtllib ground.mtl
g 3d_Ground
usemtl Stonework_Paving
v -7.34335 0 -0.18708
v -7.32631 0 0.533815
v -7.28777 0 -0.92102
v -7.24169 0 1.23195
v -7.1564 0 -1.65705
v -7.09598 0 1.89918
v -6.94831 0 -2.38345
v -6.89663 0 2.52911
v -6.665 0 -3.0883
v -6.64148 0 3.13857
v -6.32129 0 3.74181
v -6.31041 0 -3.76013
v -5.93451 0 4.32914
v -5.89075 0 -4.3885
v -5.48145 0 4.89014
v -5.41415 0 -4.96456
v -4.96456 0 5.41415
v -4.89014 0 -5.48145
v -4.3885 0 5.89075
v -4.32914 0 -5.93451
v -3.76013 0 6.31041
v -3.74181 0 -6.32129
v -3.13857 0 -6.64148
v -3.0883 0 6.665
v -2.52911 0 -6.89663
v -2.38345 0 6.94831
v -1.89918 0 -7.09598
v -1.65705 0 7.1564
v -1.23195 0 -7.24169
v -0.92102 0 7.28777
v -0.533815 0 -7.32631
v -0.18708 0 7.34335
v 0.18708 0 -7.34335
v 0.533815 0 7.32631
v 0.92102 0 -7.28777
v 1.23195 0 7.24169
v 1.65705 0 -7.1564
v 1.89918 0 7.09598
v 2.38345 0 -6.94831
v 2.52911 0 6.89663
v 3.0883 0 -6.665
v 3.13857 0 6.64148
v 3.74181 0 6.32129
v 3.76013 0 -6.31041
v 4.32914 0 5.93451
v 4.3885 0 -5.89075
v 4.89014 0 5.48145
v 4.96456 0 -5.41415
v 5.41415 0 4.96456
v 5.48145 0 -4.89014
v 5.89075 0 4.3885
v 5.93451 0 -4.32914
v 6.31041 0 3.76013
v 6.32129 0 -3.74181
v 6.64148 0 -3.13857
v 6.665 0 3.0883
v 6.89663 0 -2.52911
v 6.94831 0 2.38345
v 7.09598 0 -1.89918
v 7.1564 0 1.65705
v 7.24169 0 -1.23195
v 7.28777 0 0.92102
v 7.32631 0 -0.533815
v 7.34335 0 0.18708
vt 53.3271 36.9712
vt 52.3716 39.2536
vt 51.1725 41.5127
vt 49.724 43.7121
vt 48.0274 45.813
vt 46.0917 47.7753
vt 43.9344 49.5602
vt 41.5812 51.1317
vt 39.0653 52.4596
vt 36.4258 53.5206
vt 33.7055 54.2999
vt 30.9491 54.7918
vt 28.2006 55
vt 25.5009 54.9362
vt 22.8865 54.6193
vt 20.3878 54.0736
vt 18.0288 53.3271
vt 15.7464 52.3716
vt 13.4873 51.1725
vt 11.2879 49.724
vt 9.18698 48.0274
vt 7.22465 46.0917
vt 5.43983 43.9344
vt 3.86825 41.5812
vt 2.54036 39.0653
vt 1.4794 36.4258
vt 0.70013 33.7055
vt 0.208161 30.9491
vt 0 28.2006
vt 0.0638099 25.5009
vt 0.380702 22.8865
vt 0.926381 20.3878
vt 1.67294 18.0288
vt 2.62844 15.7464
vt 3.82752 13.4873
vt 5.27597 11.2879
vt 6.9726 9.18698
vt 8.90831 7.22465
vt 11.0656 5.43983
vt 13.4188 3.86825
vt 15.9347 2.54036
vt 18.5742 1.4794
vt 21.2945 0.70013
vt 24.0509 0.208161
vt 26.7994 0
vt 29.4991 0.0638099
vt 32.1135 0.380702
vt 34.6122 0.926381
vt 36.9712 1.67294
vt 39.2536 2.62844
vt 41.5127 3.82752
vt 43.7121 5.27597
vt 45.813 6.9726
vt 47.7753 8.90831
vt 49.5602 11.0656
vt 51.1317 13.4188
vt 52.4596 15.9347
vt 53.5206 18.5742
vt 54.2999 21.2945
vt 54.7918 24.0509
vt 55 26.7994
vt 54.9362 29.4991
vt 54.6193 32.1135
vt 54.0736 34.6122
vn 0 1 0
vn 0 1 0
vn 0 1 0
vn 0 1 0
vn 0 1 0
vn 0 1 0
vn 0 1 0
vn 0 1 0
vn 0 1 0
vn 0 1 0
vn 0 1 0
vn 0 1 0
vn 0 1 0
vn 0 1 0
vn 0 1 0
vn 0 1 0
vn 0 1 0
vn 0 1 0
vn 0 1 0
vn 0 1 0
vn 0 1 0
vn 0 1 0
vn 0 1 0
vn 0 1 0
vn 0 1 0
vn 0 1 0
vn 0 1 0
vn 0 1 0
vn 0 1 0
vn 0 1 0
vn 0 1 0
vn 0 1 0
vn 0 1 0
vn 0 1 0
vn 0 1 0
vn 0 1 0
vn 0 1 0
vn 0 1 0
vn 0 1 0
vn 0 1 0
vn 0 1 0
vn 0 1 0
vn 0 1 0
vn 0 1 0
vn 0 1 0
vn 0 1 0
vn 0 1 0
vn 0 1 0
vn 0 1 0
vn 0 1 0
vn 0 1 0
vn 0 1 0
vn 0 1 0
vn 0 1 0
vn 0 1 0
vn 0 1 0
vn 0 1 0
vn 0 1 0
vn 0 1 0
vn 0 1 0
vn 0 1 0
vn 0 1 0
vn 0 1 0
vn 0 1 0
f 11/35/35 6/32/32 10/34/34
f 11/35/35 13/36/36 15/37/37
f 2/30/30 11/35/35 1/29/29
f 6/32/32 2/30/30 4/31/31
f 6/32/32 8/33/33 10/34/34
f 2/30/30 6/32/32 11/35/35
f 21/40/40 11/35/35 15/37/37
f 30/44/44 26/42/42 28/43/43
f 21/40/40 26/42/42 30/44/44
f 30/44/44 36/47/47 21/40/40
f 21/40/40 17/38/38 19/39/39
f 21/40/40 24/41/41 26/42/42
f 7/26/26 11/35/35 21/40/40
f 21/40/40 15/37/37 17/38/38
f 12/24/24 21/40/40 56/57/57
f 7/26/26 3/28/28 1/29/29
f 3/28/28 7/26/26 5/27/27
f 7/26/26 21/40/40 12/24/24
f 12/24/24 9/25/25 7/26/26
f 12/24/24 16/22/22 14/23/23
f 16/22/22 12/24/24 23/18/18
f 11/35/35 7/26/26 1/29/29
f 22/19/19 20/20/20 18/21/21
f 18/21/21 23/18/18 22/19/19
f 18/21/21 16/22/22 23/18/18
f 27/16/16 25/17/17 23/18/18
f 27/16/16 31/14/14 29/15/15
f 27/16/16 23/18/18 31/14/14
f 23/18/18 12/24/24 31/14/14
f 12/24/24 35/12/12 31/14/14
f 32/45/45 34/46/46 30/44/44
f 38/48/48 21/40/40 36/47/47
f 49/54/54 21/40/40 38/48/48
f 40/49/49 42/50/50 38/48/48
f 49/54/54 38/48/48 43/51/51
f 43/51/51 45/52/52 47/53/53
f 42/50/50 43/51/51 38/48/48
f 49/54/54 43/51/51 47/53/53
f 53/56/56 49/54/54 51/55/55
f 49/54/54 53/56/56 56/57/57
f 12/24/24 56/57/57 61/63/63
f 56/57/57 60/59/59 62/60/60
f 61/63/63 56/57/57 62/60/60
f 60/59/59 56/57/57 58/58/58
f 21/40/40 49/54/54 56/57/57
f 64/61/61 63/62/62 62/60/60
f 39/10/10 46/7/7 44/8/8
f 48/6/6 46/7/7 52/4/4
f 41/9/9 39/10/10 44/8/8
f 52/4/4 39/10/10 35/12/12
f 35/12/12 39/10/10 37/11/11
f 39/10/10 52/4/4 46/7/7
f 31/14/14 35/12/12 33/13/13
f 61/63/63 59/64/64 57/1/1
f 52/4/4 35/12/12 61/63/63
f 54/3/3 61/63/63 57/1/1
f 50/5/5 48/6/6 52/4/4
f 61/63/63 54/3/3 52/4/4
f 57/1/1 55/2/2 54/3/3
f 61/63/63 35/12/12 12/24/24
f 61/63/63 62/60/60 63/62/62
f 34/46/46 36/47/47 30/44/44
