# Rhino

mtllib led.mtl
g 3d__3d_LED
usemtl LED_Linear
v -1.62977 3.32865 -0.249815
v -1.61734 3.3379 -0.242773
v -0.193985 0.0112135 1.57621
v -0.181556 0.0204691 1.58325
vt 0 0
vt 0 1
vt 1 0
vt 1 1
vn 0.584037 -0.182581 -0.790927
vn 0.584037 -0.182581 -0.790927
vn 0.584037 -0.182581 -0.790927
vn 0.584037 -0.182581 -0.790927
f 1/4/4 2/2/2 4/1/1 3/3/3
usemtl LED_Linear
v -1.69676 3.43173 0.02165
v -1.68483 3.44141 0.0289933
v 0.11593 0.014075 1.584
v 0.127852 0.023755 1.59134
vt 0 0
vt 0 1
vt 1 0
vt 1 1
vn 0.566328 -0.0748364 -0.820776
vn 0.566328 -0.0748364 -0.820776
vn 0.566328 -0.0748364 -0.820776
vn 0.566328 -0.0748364 -0.820776
f 5/8/8 6/6/6 8/5/5 7/7/7
usemtl LED_Linear
v -1.7184 3.53505 0.312119
v -1.70684 3.5448 0.319933
v 0.421387 0.0171801 1.53231
v 0.432952 0.0269247 1.54012
vt 0 0
vt 0 1
vt 1 0
vt 1 1
vn 0.538679 0.0356907 -0.841755
vn 0.538679 0.0356907 -0.841755
vn 0.538679 0.0356907 -0.841755
vn 0.538679 0.0356907 -0.841755
f 9/12/12 10/10/10 12/9/9 11/11/11
usemtl LED_Linear
v -1.68958 3.63853 0.613885
v -1.67816 3.64797 0.622269
v 0.711106 0.020436 1.42316
v 0.722517 0.0298829 1.43154
vt 0 0
vt 0 1
vt 1 0
vt 1 1
vn 0.505164 0.144891 -0.850774
vn 0.505164 0.144891 -0.850774
vn 0.505164 0.144891 -0.850774
vn 0.505164 0.144891 -0.850774
f 13/16/16 14/14/14 16/13/13 15/15/15
usemtl LED_Linear
v -1.60651 3.74206 0.917923
v -1.59503 3.75085 0.926894
v 0.97442 0.0237441 1.26067
v 0.985904 0.032542 1.26964
vt 0 0
vt 0 1
vt 1 0
vt 1 1
vn 0.47072 0.248705 -0.846503
vn 0.47072 0.248705 -0.846503
vn 0.47072 0.248705 -0.846503
vn 0.47072 0.248705 -0.846503
f 17/20/20 18/18/18 20/17/17 19/19/19
usemtl LED_Linear
v -1.46711 3.84553 1.21414
v -1.45534 3.85336 1.22362
v 1.20166 0.0270039 1.05091
v 1.21343 0.0348258 1.0604
vt 0 0
vt 0 1
vt 1 0
vt 1 1
vn 0.440423 0.343273 -0.829573
vn 0.440423 0.343273 -0.829573
vn 0.440423 0.343273 -0.829573
vn 0.440423 0.343273 -0.829573
f 21/24/24 22/22/22 24/21/21 23/23/23
usemtl LED_Linear
v -1.27126 3.94887 1.49168
v -1.26514 3.95214 1.49661
v -1.25902 3.95542 1.50154
v 1.38451 0.0301166 0.80167
v 1.39063 0.0333942 0.806598
v 1.39674 0.0366718 0.811526
vt 0 0
vt 0 1
vt 0.5 0
vt 0.5 1
vt 1 0
vt 1 1
vn 0.418734 0.425079 -0.802477
vn 0.418734 0.425079 -0.802477
vn 0.418734 0.425079 -0.802477
vn 0.418734 0.425079 -0.802477
vn 0.418734 0.425079 -0.802477
vn 0.418734 0.425079 -0.802477
f 26/28/28 27/26/26 30/25/25 29/27/27
f 25/30/30 26/28/28 29/27/27 28/29/29
usemtl LED_Linear
v -1.02097 4.05196 1.73937
v -1.00818 4.057 1.7494
v 1.51627 0.0329892 0.522158
v 1.52907 0.0380338 0.532182
vt 0 0
vt 0 1
vt 1 0
vt 1 1
vn 0.40885 0.491082 -0.769207
vn 0.40885 0.491082 -0.769207
vn 0.40885 0.491082 -0.769207
vn 0.40885 0.491082 -0.769207
f 31/34/34 32/32/32 34/31/31 33/33/33
usemtl LED_Linear
v -0.720614 4.15473 1.94613
v -0.707226 4.15807 1.9561
v 1.59214 0.0355371 0.222682
v 1.60553 0.0388838 0.232648
vt 0 0
vt 0 1
vt 1 0
vt 1 1
vn 0.412227 0.538829 -0.734665
vn 0.412227 0.538829 -0.734665
vn 0.412227 0.538829 -0.734665
vn 0.412227 0.538829 -0.734665
f 35/38/38 36/36/36 38/35/35 37/37/37
usemtl LED_Linear
v 0.343524 2.72676 1.3082
v 0.357435 2.72829 1.31789
v 1.61366 0.0285063 -0.0904924
v 1.62757 0.0300305 -0.0808008
vt 0 0
vt 0 1
vt 1 0
vt 1 1
vn 0.428367 0.566544 -0.703939
vn 0.428367 0.566544 -0.703939
vn 0.428367 0.566544 -0.703939
vn 0.428367 0.566544 -0.703939
f 39/42/42 40/40/40 42/39/39 41/41/41
usemtl LED_Linear
v 0.556626 2.82736 1.27847
v 0.570918 2.827 1.28771
v 1.57058 0.0301953 -0.397239
v 1.58487 0.0298404 -0.387999
vt 0 0
vt 0 1
vt 1 0
vt 1 1
vn 0.454892 0.573197 -0.681556
vn 0.454892 0.573197 -0.681556
vn 0.454892 0.573197 -0.681556
vn 0.454892 0.573197 -0.681556
f 43/46/46 44/44/44 46/43/43 45/45/45
usemtl LED_Linear
v 0.772284 2.92746 1.21408
v 0.779521 2.92635 1.21842
v 0.786759 2.92524 1.22276
v 1.46962 0.0313895 -0.690098
v 1.47685 0.0302791 -0.685759
v 1.48409 0.0291687 -0.68142
vt 0 0
vt 0 1
vt 0.5 0
vt 0.5 1
vt 1 0
vt 1 1
vn 0.487895 0.558541 -0.670813
vn 0.487895 0.558541 -0.670813
vn 0.487895 0.558541 -0.670813
vn 0.487895 0.558541 -0.670813
vn 0.487895 0.558541 -0.670813
vn 0.487895 0.558541 -0.670813
f 48/50/50 49/48/48 52/47/47 51/49/49
f 47/52/52 48/50/50 51/49/49 50/51/51
usemtl LED_Linear
v 0.98464 3.02705 1.11274
v 0.999072 3.02304 1.12083
v 1.31447 0.0320666 -0.958269
v 1.3289 0.0280625 -0.95018
vt 0 0
vt 0 1
vt 1 0
vt 1 1
vn 0.522513 0.523121 -0.673294
vn 0.522513 0.523121 -0.673294
vn 0.522513 0.523121 -0.673294
vn 0.522513 0.523121 -0.673294
f 53/56/56 54/54/54 56/53/53 55/55/55
usemtl LED_Linear
v 1.11081 0.0322237 -1.19184
v 1.12498 0.0265851 -1.18428
v 1.18701 3.12611 0.973186
v 1.20118 3.12047 0.980745
vt 0 0
vt 0 1
vt 1 0
vt 1 1
vn 0.553647 0.468252 -0.688632
vn 0.553647 0.468252 -0.688632
vn 0.553647 0.468252 -0.688632
vn 0.553647 0.468252 -0.688632
f 59/60/60 60/58/58 58/57/57 57/59/59
usemtl LED_Linear
v 0.866135 0.0318771 -1.38214
v 0.879865 0.0248136 -1.37498
v 1.11911 1.62828 -0.293335
v 1.13284 1.62121 -0.286168
v 1.37208 3.22467 0.795474
v 1.38581 3.21761 0.80264
vt 0 0
vt 0 0.5
vt 0 1
vt 1 0
vt 1 0.5
vt 1 1
vn 0.57671 0.395976 -0.714569
vn 0.57671 0.395976 -0.714569
vn 0.57671 0.395976 -0.714569
vn 0.57671 0.395976 -0.714569
vn 0.57671 0.395976 -0.714569
vn 0.57671 0.395976 -0.714569
f 63/65/65 64/62/62 62/61/61 61/64/64
f 65/66/66 66/63/63 64/62/62 63/65/65
usemtl LED_Linear
v 0.589447 0.0310619 -1.5221
v 0.602619 0.0228362 -1.51513
v 1.53223 3.32277 0.581142
v 1.54541 3.31454 0.588111
vt 0 0
vt 0 1
vt 1 0
vt 1 1
vn 0.588303 0.308979 -0.747283
vn 0.588303 0.308979 -0.747283
vn 0.588303 0.308979 -0.747283
vn 0.588303 0.308979 -0.747283
f 69/70/70 70/68/68 68/67/67 67/69/69
usemtl LED_Linear
v 0.290962 0.0298307 -1.60645
v 0.303545 0.0207484 -1.59946
v 1.65979 3.42044 0.333343
v 1.67238 3.41136 0.340339
vt 0 0
vt 0 1
vt 1 0
vt 1 1
vn 0.58672 0.210495 -0.781954
vn 0.58672 0.210495 -0.781954
vn 0.58672 0.210495 -0.781954
vn 0.58672 0.210495 -0.781954
f 73/74/74 74/72/72 72/71/71 71/73/73
usemtl LED_Linear
v -0.0182658 0.0282513 -1.63201
v -0.00621982 0.0186502 -1.62477
v 1.74744 3.51777 0.0568989
v 1.75949 3.50817 0.0641424
vt 0 0
vt 0 1
vt 1 0
vt 1 1
vn 0.572193 0.104186 -0.813474
vn 0.572193 0.104186 -0.813474
vn 0.572193 0.104186 -0.813474
vn 0.572193 0.104186 -0.813474
f 77/78/78 78/76/76 76/75/75 75/77/77
usemtl LED_Linear
v -0.326754 0.0264046 -1.59776
v -0.315112 0.0166417 -1.59008
v 1.78856 3.61484 -0.241727
v 1.80021 3.60507 -0.234053
vt 0 0
vt 0 1
vt 1 0
vt 1 1
vn 0.546863 -0.00599623 -0.837201
vn 0.546863 -0.00599623 -0.837201
vn 0.546863 -0.00599623 -0.837201
vn 0.546863 -0.00599623 -0.837201
f 81/82/82 82/80/80 80/79/79 79/81/81
usemtl LED_Linear
v -0.623017 0.0243816 -1.5049
v -0.611586 0.0148198 -1.49667
v 1.77762 3.71172 -0.554538
v 1.78905 3.70216 -0.546312
vt 0 0
vt 0 1
vt 1 0
vt 1 1
vn 0.514461 -0.115956 -0.849638
vn 0.514461 -0.115956 -0.849638
vn 0.514461 -0.115956 -0.849638
vn 0.514461 -0.115956 -0.849638
f 85/86/86 86/84/84 84/83/83 83/85/85
usemtl LED_Linear
v -0.895998 0.0222797 -1.35684
v -0.884556 0.0132743 -1.34802
v 1.71049 3.80853 -0.872194
v 1.72193 3.79952 -0.863377
vt 0 0
vt 0 1
vt 1 0
vt 1 1
vn 0.47976 -0.221604 -0.848953
vn 0.47976 -0.221604 -0.848953
vn 0.47976 -0.221604 -0.848953
vn 0.47976 -0.221604 -0.848953
f 89/90/90 90/88/88 88/87/87 87/89/89
usemtl LED_Linear
v -1.13549 0.0201991 -1.15905
v -1.12965 0.0161421 -1.15437
v -1.12381 0.0120851 -1.14969
v 0.224659 1.96278 -1.17167
v 0.230497 1.95872 -1.16699
v 0.236334 1.95466 -1.16231
v 1.58481 3.90535 -1.18428
v 1.59065 3.9013 -1.1796
v 1.59648 3.89724 -1.17492
vt 0 0
vt 0 0.5
vt 0 1
vt 0.5 0
vt 0.5 0.5
vt 0.5 1
vt 1 0
vt 1 0.5
vt 1 1
vn 0.447874 -0.319015 -0.835248
vn 0.447874 -0.319015 -0.835248
vn 0.447874 -0.319015 -0.835248
vn 0.447874 -0.319015 -0.835248
vn 0.447874 -0.319015 -0.835248
vn 0.447874 -0.319015 -0.835248
vn 0.447874 -0.319015 -0.835248
vn 0.447874 -0.319015 -0.835248
vn 0.447874 -0.319015 -0.835248
f 95/95/95 96/92/92 93/91/91 92/94/94
f 98/96/96 99/93/93 96/92/92 95/95/95
f 94/98/98 95/95/95 92/94/94 91/97/97
f 97/99/99 98/96/96 95/95/95 94/98/98
usemtl LED_Linear
v -1.33253 0.0182394 -0.918913
v -1.32043 0.0113184 -0.909138
v 1.40021 4.0023 -1.47965
v 1.4123 3.99538 -1.46988
vt 0 0
vt 0 1
vt 1 0
vt 1 1
vn 0.423499 -0.404565 -0.81054
vn 0.423499 -0.404565 -0.81054
vn 0.423499 -0.404565 -0.81054
vn 0.423499 -0.404565 -0.81054
f 102/103/103 103/101/101 101/100/100 100/102/102
usemtl LED_Linear
v -1.47973 0.0164958 -0.645376
v -1.46709 0.011025 -0.635375
v 1.1585 4.09947 -1.74682
v 1.17114 4.094 -1.73682
vt 0 0
vt 0 1
vt 1 0
vt 1 1
vn 0.410227 -0.475076 -0.778471
vn 0.410227 -0.475076 -0.778471
vn 0.410227 -0.475076 -0.778471
vn 0.410227 -0.475076 -0.778471
f 106/107/107 107/105/105 105/104/104 104/106/106
usemtl LED_Linear
v -1.5477 0.0387491 -0.690778
v -1.54363 0.0338548 -0.685132
v -1.53955 0.0289606 -0.679485
v -0.198262 5.18539 2.79649
v -0.194187 5.1805 2.80214
v -0.190112 5.1756 2.80778
vt 0 0
vt 0 1
vt 0.5 0
vt 0.5 1
vt 1 0
vt 1 1
vn 0.851949 0.121703 -0.509286
vn 0.851949 0.121703 -0.509286
vn 0.851949 0.121703 -0.509286
vn 0.851949 0.121703 -0.509286
vn 0.851949 0.121703 -0.509286
vn 0.851949 0.121703 -0.509286
f 112/111/111 113/109/109 110/108/108 109/110/110
f 111/113/113 112/111/111 109/110/110 108/112/112
usemtl LED_Linear
v -1.41181 0.0405222 -0.944487
v -1.40311 0.0312241 -0.933189
v -0.674703 5.15951 2.7009
v -0.666005 5.15022 2.7122
vt 0 0
vt 0 1
vt 1 0
vt 1 1
vn 0.851657 0.217075 -0.477032
vn 0.851657 0.217075 -0.477032
vn 0.851657 0.217075 -0.477032
vn 0.851657 0.217075 -0.477032
f 116/117/117 117/115/115 115/114/114 114/116/116
usemtl LED_Linear
v -1.23511 0.0418813 -1.17178
v -1.2259 0.0333409 -1.16029
v -1.18024 2.57616 0.668666
v -1.17102 2.56762 0.680151
v -1.12536 5.11045 2.50911
v -1.11614 5.10191 2.5206
vt 0 0
vt 0 0.5
vt 0 1
vt 1 0
vt 1 0.5
vt 1 1
vn 0.840643 0.30621 -0.446715
vn 0.840643 0.30621 -0.446715
vn 0.840643 0.30621 -0.446715
vn 0.840643 0.30621 -0.446715
vn 0.840643 0.30621 -0.446715
vn 0.840643 0.30621 -0.446715
f 120/122/122 121/119/119 119/118/118 118/121/121
f 122/123/123 123/120/120 121/119/119 120/122/122
usemtl LED_Linear
v -1.52864 5.03784 2.2275
v -1.519 5.0303 2.23933
v -1.02259 0.0427769 -1.36617
v -1.01295 0.0352395 -1.35434
vt 0 0
vt 0 1
vt 1 0
vt 1 1
vn 0.820165 0.386548 -0.421795
vn 0.820165 0.386548 -0.421795
vn 0.820165 0.386548 -0.421795
vn 0.820165 0.386548 -0.421795
f 124/127/127 125/125/125 127/124/124 126/126/126
usemtl LED_Linear
v -1.86486 4.94291 1.86852
v -1.85493 4.93659 1.88083
v -0.780247 0.043178 -1.52209
v -0.770325 0.0368601 -1.50979
vt 0 0
vt 0 1
vt 1 0
vt 1 1
vn 0.792558 0.45578 -0.405114
vn 0.792558 0.45578 -0.405114
vn 0.792558 0.45578 -0.405114
vn 0.792558 0.45578 -0.405114
f 128/131/131 129/129/129 131/128/128 130/130/130
usemtl LED_Linear
v -2.11826 4.82834 1.44992
v -2.10822 4.82342 1.46276
v -0.514938 0.0430728 -1.63502
v -0.504904 0.038156 -1.62217
vt 0 0
vt 0 1
vt 1 0
vt 1 1
vn 0.760972 0.511917 -0.398576
vn 0.760972 0.511917 -0.398576
vn 0.760972 0.511917 -0.398576
vn 0.760972 0.511917 -0.398576
f 132/135/135 133/133/133 135/132/132 134/134/134
usemtl LED_Linear
v -2.27843 4.69775 0.992953
v -2.26847 4.69438 1.00634
v -0.234201 0.0424663 -1.70164
v -0.224241 0.0390919 -1.68826
vt 0 0
vt 0 1
vt 1 0
vt 1 1
vn 0.729012 0.553347 -0.402926
vn 0.729012 0.553347 -0.402926
vn 0.729012 0.553347 -0.402926
vn 0.729012 0.553347 -0.402926
f 136/139/139 137/137/137 139/136/136 138/138/138
usemtl LED_Linear
v -2.34086 4.55504 0.520376
v -2.336 4.55418 0.527313
v -2.33115 4.55331 0.53425
v 0.0539556 0.0413768 -1.71997
v 0.0588099 0.0405092 -1.71303
v 0.0636642 0.0396417 -1.70609
vt 0 0
vt 0 1
vt 0.5 0
vt 0.5 1
vt 1 0
vt 1 1
vn 0.700323 0.578879 -0.417669
vn 0.700323 0.578879 -0.417669
vn 0.700323 0.578879 -0.417669
vn 0.700323 0.578879 -0.417669
vn 0.700323 0.578879 -0.417669
vn 0.700323 0.578879 -0.417669
f 141/143/143 142/141/141 145/140/140 144/142/142
f 140/145/145 141/143/143 144/142/142 143/144/144
usemtl LED_Linear
v -2.3067 4.40385 0.0545361
v -2.29739 4.4038 0.068787
v 0.34128 0.0398329 -1.68936
v 0.350589 0.0397868 -1.67511
vt 0 0
vt 0 1
vt 1 0
vt 1 1
vn 0.678179 0.587779 -0.441122
vn 0.678179 0.587779 -0.441122
vn 0.678179 0.587779 -0.441122
vn 0.678179 0.587779 -0.441122
f 146/149/149 147/147/147 149/146/146 148/148/148
usemtl LED_Linear
v -2.18202 4.24723 -0.384037
v -2.17321 4.24887 -0.369564
v 0.619513 0.0378711 -1.6106
v 0.628321 0.0395155 -1.59613
vt 0 0
vt 0 1
vt 1 0
vt 1 1
vn 0.665107 0.579792 -0.47061
vn 0.665107 0.579792 -0.47061
vn 0.665107 0.579792 -0.47061
vn 0.665107 0.579792 -0.47061
f 150/153/153 151/151/151 153/150/150 152/152/152
usemtl LED_Linear
v -1.97689 4.08759 -0.777552
v -1.96863 4.09088 -0.763036
v 0.880627 0.0355353 -1.48585
v 0.888887 0.0388229 -1.47133
vt 0 0
vt 0 1
vt 1 0
vt 1 1
vn 0.662598 0.555148 -0.502767
vn 0.662598 0.555148 -0.502767
vn 0.662598 0.555148 -0.502767
vn 0.662598 0.555148 -0.502767
f 154/157/157 155/155/155 157/154/154 156/156/156
usemtl LED_Linear
v -1.70442 3.92675 -1.1115
v -1.69669 3.93159 -1.09713
v -0.29368 1.97981 -1.21505
v -0.285951 1.98465 -1.20068
v 1.11706 0.032876 -1.3186
v 1.12479 0.0377124 -1.30423
vt 0 0
vt 0 0.5
vt 0 1
vt 1 0
vt 1 0.5
vt 1 1
vn 0.670938 0.514554 -0.533926
vn 0.670938 0.514554 -0.533926
vn 0.670938 0.514554 -0.533926
vn 0.670938 0.514554 -0.533926
vn 0.670938 0.514554 -0.533926
vn 0.670938 0.514554 -0.533926
f 160/162/162 161/159/159 163/158/158 162/161/161
f 158/163/163 159/160/160 161/159/159 160/162/162
usemtl LED_Linear
v -1.37987 3.76601 -1.37497
v -1.37259 3.77226 -1.3609
v 1.32193 0.0299497 -1.11361
v 1.32921 0.0361958 -1.09955
vt 0 0
vt 0 1
vt 1 0
vt 1 1
vn 0.689175 0.459177 -0.56053
vn 0.689175 0.459177 -0.56053
vn 0.689175 0.459177 -0.56053
vn 0.689175 0.459177 -0.56053
f 164/167/167 165/165/165 167/164/164 166/166/166
usemtl LED_Linear
v -1.01984 3.60631 -1.56071
v -1.01288 3.61378 -1.54709
v 1.48926 0.0268183 -0.876723
v 1.49621 0.0342948 -0.863103
vt 0 0
vt 0 1
vt 1 0
vt 1 1
vn 0.71523 0.390607 -0.579545
vn 0.71523 0.390607 -0.579545
vn 0.71523 0.390607 -0.579545
vn 0.71523 0.390607 -0.579545
f 168/171/171 169/169/169 171/168/168 170/170/170
usemtl LED_Linear
v -0.641476 3.44828 -1.6652
v -0.634681 3.45678 -1.65211
v 0.486326 1.73592 -1.13997
v 0.493121 1.74441 -1.12688
v 1.61413 0.0235481 -0.614739
v 1.62092 0.0320402 -0.601645
vt 0 0
vt 0 0.5
vt 0 1
vt 1 0
vt 1 0.5
vt 1 1
vn 0.746129 0.310815 -0.5888
vn 0.746129 0.310815 -0.5888
vn 0.746129 0.310815 -0.5888
vn 0.746129 0.310815 -0.5888
vn 0.746129 0.310815 -0.5888
vn 0.746129 0.310815 -0.5888
f 174/176/176 175/173/173 177/172/172 176/175/175
f 172/177/177 173/174/174 175/173/173 174/176/176
usemtl LED_Linear
v -0.261804 3.29238 -1.68844
v -0.254982 3.30165 -1.67589
v 1.69285 0.0202085 -0.335208
v 1.69967 0.0294722 -0.322662
vt 0 0
vt 0 1
vt 1 0
vt 1 1
vn 0.778346 0.222094 -0.58724
vn 0.778346 0.222094 -0.58724
vn 0.778346 0.222094 -0.58724
vn 0.778346 0.222094 -0.58724
f 178/181/181 179/179/179 181/178/178 180/180/180
usemtl LED_Linear
v -0.954016 5.17573 -2.66951
v -0.950501 5.18062 -2.66349
v -0.946986 5.1855 -2.65747
v 1.71673 0.0290915 -0.0524252
v 1.72025 0.033976 -0.0464065
v 1.72376 0.0388605 -0.0403877
vt 0 0
vt 0 1
vt 0.5 0
vt 0.5 1
vt 1 0
vt 1 1
vn 0.808207 0.126991 -0.575044
vn 0.808207 0.126991 -0.575044
vn 0.808207 0.126991 -0.575044
vn 0.808207 0.126991 -0.575044
vn 0.808207 0.126991 -0.575044
vn 0.808207 0.126991 -0.575044
f 183/185/185 184/183/183 187/182/182 186/184/184
f 182/187/187 183/185/185 186/184/184 185/186/186
usemtl LED_Linear
v -0.480274 5.14554 -2.77802
v -0.472879 5.15553 -2.76639
v 1.69834 0.0265495 0.236252
v 1.70573 0.0365433 0.24788
vt 0 0
vt 0 1
vt 1 0
vt 1 1
vn 0.832303 0.0282401 -0.553601
vn 0.832303 0.0282401 -0.553601
vn 0.832303 0.0282401 -0.553601
vn 0.832303 0.0282401 -0.553601
f 188/191/191 189/189/189 191/188/188 190/190/190
usemtl LED_Linear
v 0.00925479 5.09256 -2.78822
v 0.0131925 5.09753 -2.78254
v 0.0171303 5.10249 -2.77686
v 1.63135 0.0239951 0.517808
v 1.63529 0.0289608 0.523489
v 1.63923 0.0339265 0.52917
vt 0 0
vt 0 1
vt 0.5 0
vt 0.5 1
vt 1 0
vt 1 1
vn 0.847886 -0.0713223 -0.52536
vn 0.847886 -0.0713223 -0.52536
vn 0.847886 -0.0713223 -0.52536
vn 0.847886 -0.0713223 -0.52536
vn 0.847886 -0.0713223 -0.52536
vn 0.847886 -0.0713223 -0.52536
f 193/195/195 194/193/193 197/192/192 196/194/194
f 192/197/197 193/195/195 196/194/194 195/196/196
usemtl LED_Linear
v 0.492286 5.01655 -2.69716
v 0.500703 5.02613 -2.68589
v 1.51764 0.0214909 0.784102
v 1.52605 0.0310746 0.795374
vt 0 0
vt 0 1
vt 1 0
vt 1 1
vn 0.853177 -0.168836 -0.493542
vn 0.853177 -0.168836 -0.493542
vn 0.853177 -0.168836 -0.493542
vn 0.853177 -0.168836 -0.493542
f 198/201/201 199/199/199 201/198/198 200/200/200
usemtl LED_Linear
v 0.945814 4.91883 -2.50822
v 0.954772 4.9278 -2.49686
v 1.15311 2.46897 -0.740405
v 1.16207 2.47793 -0.729037
v 1.36042 0.0191038 1.02741
v 1.36937 0.0280645 1.03878
vt 0 0
vt 0 0.5
vt 0 1
vt 1 0
vt 1 0.5
vt 1 1
vn 0.847573 -0.261498 -0.461777
vn 0.847573 -0.261498 -0.461777
vn 0.847573 -0.261498 -0.461777
vn 0.847573 -0.261498 -0.461777
vn 0.847573 -0.261498 -0.461777
vn 0.847573 -0.261498 -0.461777
f 204/206/206 205/203/203 207/202/202 206/205/205
f 202/207/207 203/204/204 205/203/203 204/206/206
usemtl LED_Linear
v 1.16419 0.0169021 1.24067
v 1.17363 0.0249823 1.25231
v 1.34828 4.80217 -2.23115
v 1.35771 4.81025 -2.21952
vt 0 0
vt 0 1
vt 1 0
vt 1 1
vn 0.831714 -0.346648 -0.43369
vn 0.831714 -0.346648 -0.43369
vn 0.831714 -0.346648 -0.43369
vn 0.831714 -0.346648 -0.43369
f 210/211/211 211/209/209 209/208/208 208/210/210
usemtl LED_Linear
v 0.934612 0.014951 1.41765
v 0.944409 0.0219186 1.42971
v 1.30808 2.34259 -0.231723
v 1.31788 2.34956 -0.219672
v 1.68156 4.67024 -1.8811
v 1.69135 4.6772 -1.86905
vt 0 0
vt 0 0.5
vt 0 1
vt 1 0
vt 1 0.5
vt 1 1
vn 0.807409 -0.421838 -0.412485
vn 0.807409 -0.421838 -0.412485
vn 0.807409 -0.421838 -0.412485
vn 0.807409 -0.421838 -0.412485
vn 0.807409 -0.421838 -0.412485
vn 0.807409 -0.421838 -0.412485
f 214/216/216 215/213/213 213/212/212 212/215/215
f 216/217/217 217/214/214 215/213/213 214/216/216
usemtl LED_Linear
v 0.678313 0.0133075 1.55321
v 0.688313 0.0189622 1.56577
v 1.93231 4.52697 -1.47693
v 1.94231 4.53263 -1.46437
vt 0 0
vt 0 1
vt 1 0
vt 1 1
vn 0.77743 -0.484909 -0.400582
vn 0.77743 -0.484909 -0.400582
vn 0.77743 -0.484909 -0.400582
vn 0.77743 -0.484909 -0.400582
f 220/221/221 221/219/219 219/218/218 218/220/220
usemtl LED_Linear
v 0.402721 0.0120159 1.64338
v 0.412742 0.0161953 1.65649
v 2.09252 4.37603 -1.03944
v 2.10254 4.38021 -1.02633
vt 0 0
vt 0 1
vt 1 0
vt 1 1
vn 0.745199 -0.534048 -0.399339
vn 0.745199 -0.534048 -0.399339
vn 0.745199 -0.534048 -0.399339
vn 0.745199 -0.534048 -0.399339
f 224/225/225 225/223/223 223/222/222 222/224/224
usemtl LED_Linear
v 0.115828 0.0111056 1.68555
v 0.125686 0.0136897 1.69918
v 2.15937 4.22046 -0.589748
v 2.16923 4.22305 -0.576113
vt 0 0
vt 0 1
vt 1 0
vt 1 1
vn 0.714392 -0.567844 -0.408898
vn 0.714392 -0.567844 -0.408898
vn 0.714392 -0.567844 -0.408898
vn 0.714392 -0.567844 -0.408898
f 228/229/229 229/227/227 227/226/226 226/228/228
usemtl LED_Linear
v -0.174048 0.0105904 1.6785
v -0.164518 0.0115048 1.69257
v 2.13479 4.06265 -0.14807
v 2.14432 4.06356 -0.133995
vt 0 0
vt 0 1
vt 1 0
vt 1 1
vn 0.688525 -0.585325 -0.428167
vn 0.688525 -0.585325 -0.428167
vn 0.688525 -0.585325 -0.428167
vn 0.688525 -0.585325 -0.428167
f 232/233/233 233/231/231 231/230/230 230/232/232
usemtl LED_Linear
v -0.458511 0.0104683 1.62246
v -0.449437 0.00968686 1.63684
v 0.78313 1.95741 0.944791
v 0.792204 1.95662 0.959172
v 2.02477 3.90434 0.267125
v 2.03385 3.90356 0.281506
vt 0 0
vt 0 0.5
vt 0 1
vt 1 0
vt 1 0.5
vt 1 1
vn 0.67055 -0.58599 -0.454949
vn 0.67055 -0.58599 -0.454949
vn 0.67055 -0.58599 -0.454949
vn 0.67055 -0.58599 -0.454949
vn 0.67055 -0.58599 -0.454949
vn 0.67055 -0.58599 -0.454949
f 236/238/238 237/235/235 235/234/234 234/237/237
f 238/239/239 239/236/236 237/235/235 236/238/238
usemtl LED_Linear
v -0.729334 0.0107229 1.51907
v -0.725063 0.0094955 1.52633
v -0.720792 0.00826808 1.53359
v 1.8387 3.74679 0.639753
v 1.84297 3.74556 0.647012
v 1.84725 3.74433 0.654271
vt 0 0
vt 0 1
vt 0.5 0
vt 0.5 1
vt 1 0
vt 1 1
vn 0.662516 -0.569819 -0.486188
vn 0.662516 -0.569819 -0.486188
vn 0.662516 -0.569819 -0.486188
vn 0.662516 -0.569819 -0.486188
vn 0.662516 -0.569819 -0.486188
vn 0.662516 -0.569819 -0.486188
f 244/243/243 245/241/241 242/240/240 241/242/242
f 243/245/245 244/243/243 241/242/242 240/244/244
usemtl LED_Linear
v -0.978704 0.0113249 1.37136
v -0.970709 0.00726715 1.38583
v 1.58865 3.59081 0.956539
v 1.59665 3.58676 0.971008
vt 0 0
vt 0 1
vt 1 0
vt 1 1
vn 0.665341 -0.537277 -0.518319
vn 0.665341 -0.537277 -0.518319
vn 0.665341 -0.537277 -0.518319
vn 0.665341 -0.537277 -0.518319
f 248/249/249 249/247/247 247/246/246 246/248/248
usemtl LED_Linear
v -1.19944 0.0122332 1.18363
v -1.19195 0.00668918 1.19787
v 1.28866 3.43697 1.2073
v 1.29616 3.43142 1.22154
vt 0 0
vt 0 1
vt 1 0
vt 1 1
vn 0.678702 -0.489299 -0.547677
vn 0.678702 -0.489299 -0.547677
vn 0.678702 -0.489299 -0.547677
vn 0.678702 -0.489299 -0.547677
f 252/253/253 253/251/251 251/250/250 250/252/252
usemtl LED_Linear
v -1.38522 0.0133973 0.961313
v -1.37812 0.0065262 0.975174
v 0.95408 3.28557 1.3851
v 0.96118 3.2787 1.39896
vt 0 0
vt 0 1
vt 1 0
vt 1 1
vn 0.701075 -0.427263 -0.570912
vn 0.701075 -0.427263 -0.570912
vn 0.701075 -0.427263 -0.570912
vn 0.701075 -0.427263 -0.570912
f 256/257/257 257/255/255 255/254/254 254/256/256
usemtl LED_Linear
v -1.52355 3.22589 -0.496053
v -1.51053 3.23438 -0.489099
v -0.496876 0.00867955 1.50911
v -0.483862 0.0171667 1.51606
vt 0 0
vt 0 1
vt 1 0
vt 1 1
vn 0.589198 -0.283539 -0.756605
vn 0.589198 -0.283539 -0.756605
vn 0.589198 -0.283539 -0.756605
vn 0.589198 -0.283539 -0.756605
f 258/261/261 259/259/259 261/258/258 260/260/260
